<svg version="1.1" xmlns="http://www.w3.org/2000/svg" xmlns:xlink="http://www.w3.org/1999/xlink" width="107.08201" height="39.2589" viewBox="0,0,107.08201,39.2589"><g transform="translate(-186.459,-160.37055)"><g data-paper-data="{&quot;isPaintingLayer&quot;:true}" fill-rule="nonzero" stroke-linecap="butt" stroke-linejoin="miter" stroke-miterlimit="10" stroke-dasharray="" stroke-dashoffset="0" style="mix-blend-mode: normal"><path d="M206.08124,199.62945v-39.18917h67.83753v39.18917z" fill="#ff8600" stroke="#000000" stroke-width="0"/><path d="M186.459,179.99279c0,-10.83706 8.78517,-19.62224 19.62224,-19.62224c10.83706,0 19.62224,8.78517 19.62224,19.62224c0,10.83706 -8.78517,19.62224 -19.62224,19.62224c-10.83706,0 -19.62224,-8.78517 -19.62224,-19.62224z" fill="#ff8600" stroke="#000000" stroke-width="0"/><path d="M254.29652,179.9928c0,-10.83706 8.78518,-19.62223 19.62224,-19.62223c10.83706,0 19.62224,8.78517 19.62224,19.62223c0,10.83706 -8.78518,19.62224 -19.62224,19.62224c-10.83706,0 -19.62224,-8.78518 -19.62224,-19.62224z" fill="#ff8600" stroke="#000000" stroke-width="0"/><text transform="translate(213.75001,186.03486) scale(0.5,0.5)" font-size="40" xml:space="preserve" fill="#ffffff" fill-rule="nonzero" stroke="none" stroke-width="1" stroke-linecap="butt" stroke-linejoin="miter" stroke-miterlimit="10" stroke-dasharray="" stroke-dashoffset="0" font-family="&quot;Splatfont 2&quot;, Sans Serif" font-weight="normal" text-anchor="start" style="mix-blend-mode: normal"><tspan x="0" dy="0">ログイン</tspan></text></g></g></svg>