<svg version="1.1" xmlns="http://www.w3.org/2000/svg" xmlns:xlink="http://www.w3.org/1999/xlink" width="163.77464" height="39.2589" viewBox="0,0,163.77464,39.2589"><g transform="translate(-239.22482,-160.33569)"><g stroke-miterlimit="10"><path d="M258.84706,199.59459v-39.18917h122.30589v39.18917z" fill="#ff8600" stroke="#000000" stroke-width="0"/><path d="M239.22482,179.95793c0,-10.83706 8.78517,-19.62224 19.62224,-19.62224c10.83706,0 19.62224,8.78517 19.62224,19.62224c0,10.83706 -8.78517,19.62224 -19.62224,19.62224c-10.83706,0 -19.62224,-8.78517 -19.62224,-19.62224z" fill="#ff8600" stroke="#000000" stroke-width="0"/><path d="M363.75498,179.95794c0,-10.83706 8.78518,-19.62223 19.62224,-19.62223c10.83706,0 19.62224,8.78517 19.62224,19.62223c0,10.83706 -8.78518,19.62224 -19.62224,19.62224c-10.83706,0 -19.62224,-8.78518 -19.62224,-19.62224z" fill="#ff8600" stroke="#000000" stroke-width="0"/><text transform="translate(278.85001,186) scale(0.5,0.5)" font-size="40" xml:space="preserve" fill="#ffffff" stroke="none" stroke-width="1" font-family="&quot;Splatfont 2&quot;, Sans Serif" font-weight="normal" text-anchor="start"><tspan x="0" dy="0">Landbrast</tspan></text></g></g></svg>