<svg version="1.1" xmlns="http://www.w3.org/2000/svg" xmlns:xlink="http://www.w3.org/1999/xlink" width="163.77464" height="39.2589" viewBox="0,0,163.77464,39.2589"><g transform="translate(-159.16929,-160.37055)"><g data-paper-data="{&quot;isPaintingLayer&quot;:true}" fill-rule="nonzero" stroke-linejoin="miter" stroke-miterlimit="10" stroke-dasharray="" stroke-dashoffset="0" style="mix-blend-mode: normal"><path d="M179.84814,199.62945v-39.18917h122.30589v39.18917z" fill="#e3a300" stroke="#000000" stroke-width="0" stroke-linecap="butt"/><path d="M159.16929,179.99279c0,-10.83706 8.78517,-19.62224 19.62224,-19.62224c10.83706,0 19.62224,8.78517 19.62224,19.62224c0,10.83706 -8.78517,19.62224 -19.62224,19.62224c-10.83706,0 -19.62224,-8.78517 -19.62224,-19.62224z" fill="#e3a300" stroke="#000000" stroke-width="0" stroke-linecap="butt"/><path d="M283.69945,179.9928c0,-10.83706 8.78518,-19.62223 19.62224,-19.62223c10.83706,0 19.62224,8.78517 19.62224,19.62223c0,10.83706 -8.78518,19.62224 -19.62224,19.62224c-10.83706,0 -19.62224,-8.78518 -19.62224,-19.62224z" fill="#e3a300" stroke="#000000" stroke-width="0" stroke-linecap="butt"/><text transform="translate(227.26515,186.03487) scale(0.5,0.5)" font-size="40" xml:space="preserve" fill="#ffffff" fill-rule="nonzero" stroke="none" stroke-width="1" stroke-linecap="butt" stroke-linejoin="miter" stroke-miterlimit="10" stroke-dasharray="" stroke-dashoffset="0" font-family="&quot;Splatfont 2&quot;, Sans Serif" font-weight="normal" text-anchor="start" style="mix-blend-mode: normal"><tspan x="0" dy="0">アカウント</tspan></text><g fill="none" stroke="#ffffff" stroke-width="2.5"><path d="M200.77346,174.93079c0,4.45559 -3.5191,8.06756 -7.86014,8.06756c-4.34103,0 -7.86014,-3.61197 -7.86014,-8.06756c0,-4.45559 3.51911,-8.06756 7.86014,-8.06756c4.34103,0 7.86014,3.61197 7.86014,8.06756z" stroke-linecap="butt"/><path d="M186.29583,181.1001c0,0 -2.45834,1.8558 -2.88441,3.38142c-0.60178,2.15476 -0.38479,8.32445 -0.38479,8.32445" stroke-linecap="round"/><path d="M199.07598,181.41648c0,0 2.45834,1.8558 2.88441,3.38142c0.60178,2.15476 0.38479,8.32445 0.38479,8.32445" data-paper-data="{&quot;index&quot;:null}" stroke-linecap="round"/></g></g></g></svg>