<svg version="1.1" xmlns="http://www.w3.org/2000/svg" xmlns:xlink="http://www.w3.org/1999/xlink" width="76.39112" height="76.29323" viewBox="0,0,76.39112,76.29323"><g transform="translate(-201.80444,-141.85339)"><g fill="#fdf786" stroke="none" stroke-width="0.5" stroke-miterlimit="10"><path d="M203.65245,190.97557c-0.76588,-0.80842 -1.04567,-1.96649 -1.5685,-2.94973c0,0 -0.90681,-1.81362 0.54625,-2.99085c0.03516,-3.42614 0.21387,-6.91401 0.05122,-10.33027c-0.26636,-0.46686 -0.3942,-1.08666 -0.13428,-1.88015c-0.4256,-4.25273 -1.64126,-9.36519 1.0158,-12.56337c-0.15796,-0.80321 -0.32262,-1.56544 -0.51131,-2.26286l0.83025,-0.74393l-0.43537,-0.29024l1.06999,-1.60499c0.20716,-0.925 0.83221,-1.37943 1.39634,-1.60267c0.36147,-0.20305 0.77853,-0.31885 1.22263,-0.31885c0.27907,0 0.54746,0.04573 0.79809,0.1301c2.89268,0.1389 5.03067,0.81248 7.72609,2.28779l0.7859,-0.31461c0,0 2.49997,0 2.5,2.49996v0.00004c-0.00003,2.49996 -2.5,2.49996 -2.5,2.49996l-2.24603,-0.21985l0.06735,0.39798c-0.56888,0.71107 -1.113,1.44269 -1.70665,2.13322c-0.12121,0.14099 -0.61545,0.32778 -0.43133,0.35369c0.53409,0.07515 1.11311,-0.40487 1.60704,-0.18826c3.06429,1.34382 9.59428,7.36077 8.36206,11.21473c-1.25002,3.90963 -3.95592,3.4898 -6.80844,3.55613c-0.02803,0.26219 -0.05397,0.52316 -0.0761,0.78251l-0.18562,0.2366c0.00022,0.00185 0.00044,0.00371 0.00067,0.00556l0.10962,0.03654l-0.07638,0.22915c0.24635,1.88674 0.7336,3.92848 1.52747,5.23651c0.19141,-0.18528 0.43374,-0.35829 0.73829,-0.51057c2.23607,-1.11803 3.3541,1.11804 3.3541,1.11804l0.71538,1.62774c0.11132,0.68447 0.27577,1.35726 0.47512,2.02156l1.51316,1.89145c0.35028,0.43024 0.56027,0.97924 0.56027,1.57729c0,0.71232 -0.29792,1.35506 -0.77594,1.81042c0.94369,1.68415 3.02283,5.43733 2.75436,6.26738c-0.2957,0.91422 -0.83049,1.7848 -1.51259,2.52614c0.11878,0.13556 0.22795,0.2902 0.31665,0.46546c0.25679,0.13636 0.5521,0.25667 0.89599,0.35941c0,0 2.32119,0.92848 1.39272,3.24967c-0.92847,2.32119 -3.24967,1.39272 -3.24967,1.39272c-1.0881,-0.49383 -2.38546,-0.67188 -3.2643,-1.48149c-0.00104,-0.00096 -0.15301,-0.27675 -0.38886,-0.70255c-1.33423,-0.64769 -2.7232,-1.53657 -3.81644,-2.64638c-0.91563,0.43663 -1.78574,0.75026 -3.53124,-1.13876c-2.64384,-2.86123 -1.53136,-4.78842 -0.08725,-6.87205c0.01681,-0.3923 0.05777,-0.79178 0.05942,-1.1829c-3.32607,-0.28709 -6.55771,-0.44377 -9.08594,-3.11244z"/><path d="M232.87835,152.8662c0.25892,-1.07261 1.33885,-1.75905 1.9148,-2.70023c0.1929,-0.31523 0.38793,-0.63036 0.58653,-0.94367c0.1981,-0.87315 0.87638,-1.45454 0.87638,-1.45454c0.07602,-0.06468 0.15203,-0.12935 0.22805,-0.19403c0.56971,-0.79506 1.18239,-1.55633 1.86479,-2.25245c0,0 0.20945,-0.20945 0.55626,-0.41207c0.13392,-0.13049 0.27499,-0.25049 0.42223,-0.36146l-0.08712,-0.08712l1.875,-1.875c0.45241,-0.45241 1.07742,-0.73224 1.76777,-0.73224c1.38071,0 2.5,1.11929 2.5,2.5c0,0.60723 -0.2165,1.1639 -0.57651,1.59703l-0.54924,0.67129c0.50782,-0.18877 1.15159,-0.20673 1.93128,0.18312c0.68634,0.34318 1.05669,0.79168 1.24035,1.24853c0.40798,0.21838 0.65938,0.46978 0.65938,0.46978c1.00113,1.00229 3.87907,3.74392 4.50357,4.97185c0.86396,1.69878 1.40454,3.70742 1.76768,5.75673c0.11194,0.10253 0.21954,0.21076 0.32228,0.32537c2.27236,2.53493 1.57952,6.45607 1.33706,9.42107c1.68944,0.54667 3.73176,1.28569 4.6876,2.46417c1.80023,2.21954 2.30933,5.51093 2.83956,8.49658l1.34123,-0.24386c0.16024,-0.03223 0.32601,-0.04915 0.49574,-0.04915c1.38071,0 2.5,1.11929 2.5,2.5c0,0.82832 -0.40283,1.56254 -1.02328,2.01746l-1.04056,0.78042c0.00665,0.01522 0.00996,0.02347 0.01003,0.02364l-0.05497,0.01009l-0.13035,0.09776c0.01891,0.09159 0.0328,0.18501 0.0414,0.27996c0.85372,0.268 1.74538,0.47186 2.42923,1.02689c0.35917,0.29152 0.51049,0.78692 0.67133,1.26324c0.92723,-1.13453 2.51605,-0.73732 2.51605,-0.73732c0.64543,0.17519 1.29086,0.35038 1.93629,0.52557l2.10816,-0.26352c0.11412,-0.01595 0.2307,-0.02419 0.34921,-0.02419c1.38071,0 2.5,1.11929 2.5,2.5c0,1.25483 -0.9245,2.29374 -2.12954,2.47274l-3.57111,0.59518c-0.49187,0.23267 -0.98437,0.439 -1.46504,0.60315c-0.03695,0.06957 -0.07709,0.13717 -0.12023,0.20263l-2.16743,3.40598l-0.06625,-0.04216c-0.0159,0.06877 -0.0318,0.13756 -0.0477,0.20633l-0.17604,0.11068l0.04935,0.04387l-2.49169,2.80315c-0.45814,0.52022 -1.12915,0.84844 -1.87683,0.84844c-0.45843,0 -0.88804,-0.12339 -1.25743,-0.33877c-0.42307,0.44537 -0.88653,0.87501 -1.22893,1.35178l-0.04708,0.02192c-0.04417,0.26778 -0.13089,0.5212 -0.25298,0.7531l-0.89039,1.78079l-0.4701,1.76285l-0.14465,-0.03858c-0.00317,0.15341 -0.00634,0.30682 -0.00951,0.46023l-0.39078,0.27036l0.16368,0.11692l-1.54314,2.16039c-0.34603,0.49742 -0.86815,0.86317 -1.47608,1.00696c-0.56709,0.65007 -1.08093,1.22042 -1.40959,1.59548l-1.48933,2.08507c-0.34744,0.49944 -0.87238,0.86613 -1.48346,1.00869c-0.27182,0.54074 -0.52978,1.09787 -0.77238,1.67512c0,0 -0.9848,2.29787 -3.28266,1.31307c-2.29787,-0.9848 -1.31306,-3.28266 -1.31306,-3.28266c1.16357,-2.67086 2.55996,-4.95406 4.12564,-7.14727c-2.14182,0.30861 -2.69063,-1.88659 -2.69063,-1.88659l-0.38714,-1.85634c0,-0.63326 -0.00524,-1.25976 -0.01207,-1.88037c-3.78272,1.60643 -7.6672,2.93438 -11.24759,4.98848c0,0 -2.17061,1.24035 -3.41096,-0.93026c-1.24034,-2.17061 0.93026,-3.41096 0.93026,-3.41096c0.04776,-0.0272 0.09557,-0.05428 0.14343,-0.08127c-0.03007,-0.02708 -0.04585,-0.04286 -0.04585,-0.04286l-1.16493,-1.43123c-1.48902,-3.68382 -2.86899,-8.54366 -1.75296,-12.61998c0.00861,-0.03145 0.01736,-0.06285 0.02623,-0.0942l-0.0207,-0.0016l0.22446,-2.91806l-1.96826,1.81686c-0.37568,0.34897 -0.85885,0.58381 -1.39434,0.64932c-0.36641,0.21066 -0.79125,0.33113 -1.24423,0.33113c-1.19754,0 -2.19842,-0.84201 -2.44291,-1.9663c-0.9633,-0.72099 -0.9633,-2.04479 -0.9633,-2.04479l0.12829,-0.01385c-0.58134,-1.80994 -1.93156,-4.95046 -0.79178,-6.84681c0.14395,-0.2395 0.30927,-0.46039 0.4913,-0.6667l-0.0844,-0.06752l1.26923,-1.58654c0.06462,-0.22981 0.13152,-0.37197 0.13152,-0.37197c1.57376,-3.34404 3.22441,-6.64867 4.75508,-10.01113c0.07446,-0.19662 0.15185,-0.39218 0.23229,-0.58662l0.05632,-0.05137c0.00251,-0.0056 0.00503,-0.0112 0.00754,-0.0168l-0.02526,-0.01263l0.274,-0.54799l0.81052,-1.94527c-0.0156,-0.01094 -0.0312,-0.02188 -0.0468,-0.03282l-0.03299,0.13197l-2.44926,-0.61232c-1.1133,-0.25265 -1.94439,-1.24829 -1.94439,-2.43804c0,-1.30615 1.00167,-2.37835 2.27874,-2.49034l1.81508,-0.18151l0.58649,-1.02636c0.36307,-0.66361 1.01837,-1.14452 1.79283,-1.26966c0.0115,-0.19519 0.03819,-0.38926 0.08468,-0.58185zM242.85991,158.95371c0.57202,-1.00389 1.20401,-2.02951 1.45002,-2.91533l2.9926,-1.20971c-0.54861,-0.57822 -1.25318,-1.28731 -1.81181,-1.84334c-0.71544,1.01728 -1.38395,2.11638 -2.52104,2.39867c-2.24501,0.55735 -3.77736,0.7439 -4.79539,0.63722l0.20556,1.01713c1.52656,0.52013 3.01368,1.16029 4.48006,1.91536zM237.64492,171.3077c-0.26346,-0.00605 -0.51686,-0.05286 -0.75412,-0.13436l-0.12269,0.36805c0.2958,0.00033 0.58129,-0.00413 0.85813,-0.0132c0.00406,-0.0797 0.01076,-0.1537 0.01867,-0.22049zM254.13353,180.65193c-0.01133,-1.32962 0.44324,-2.62216 0.66485,-3.93323c0,0 0.34221,-1.88214 2.07434,-2.05425c-0.84494,-1.03626 -2.55516,-0.95404 -3.84274,-1.37683c0,0 -0.27761,-0.09254 -0.61122,-0.30927c-0.36764,0.13842 -0.8295,0.22977 -1.32092,0.12626c-0.26241,0.23127 -0.57371,0.40835 -0.9164,0.51375l-2.75781,0.91927l-0.00341,-0.01023l-0.02421,0.01927c-3.9463,1.21353 -6.65304,1.97369 -10.76294,1.99426c0,0 -0.69566,0 -1.35305,-0.36697c-0.04143,0.08555 -0.08358,0.17116 -0.12641,0.25679c0.14728,0.31866 0.22945,0.67357 0.22945,1.04767c0,0.26862 -0.04237,0.52733 -0.12078,0.76984c0.47084,0.33293 0.8215,0.82456 0.9741,1.397c0.15093,-0.13587 0.30222,-0.19038 0.45253,-0.08602c1.31051,0.9099 1.20063,3.03016 2.2712,4.21305c0.43438,0.47996 1.26735,0.26461 1.90102,0.39692l0.71013,-0.65711c0,0 2.40381,-0.6868 3.09062,1.71701c0.06946,0.24309 0.1073,0.46861 0.11923,0.67764l0.4037,-0.03105c0.3408,-0.17409 0.72682,-0.27229 1.13577,-0.27229h3.04038c0.25481,-0.0225 0.50981,-0.03617 0.76489,-0.0417c0.35503,-0.56421 1.37708,-1.79769 3.16674,-0.98421c0.0478,0.02173 0.09415,0.044 0.13907,0.0668l1.12115,-1.12115l0.03192,0.03191c-0.27391,-0.91525 -0.44241,-1.87504 -0.45118,-2.90313zM265.82921,184.98743v0l0.00004,-0.00001zM238.21392,189.73596c-0.01687,0.0592 -0.03298,0.11986 -0.04834,0.18188c0.1405,-0.16673 0.28498,-0.3209 0.43332,-0.46361c-0.18305,-0.0238 -0.31922,0.05105 -0.38498,0.28174zM235.80293,162.56197l-0.15192,0.45574l-0.28325,2.54927l-0.04926,-0.00547c0.00256,0.09696 0.00279,0.19416 0.00051,0.29164c-0.00296,0.12688 -0.00957,0.25545 -0.01961,0.38559c0.34809,0.03159 0.67558,0.13453 0.96772,0.29408l1.76274,-2.42377c-0.75786,-0.49113 -1.50157,-1.00448 -2.22693,-1.54708z"/></g></g></svg>