<svg version="1.1" xmlns="http://www.w3.org/2000/svg" xmlns:xlink="http://www.w3.org/1999/xlink" width="63.25" height="58.25" viewBox="0,0,63.25,58.25"><g transform="translate(-208.375,-150.875)"><g data-paper-data="{&quot;isPaintingLayer&quot;:true}" fill-rule="nonzero" stroke-linejoin="miter" stroke-miterlimit="10" stroke-dasharray="" stroke-dashoffset="0" style="mix-blend-mode: normal"><path d="M219.09534,209.125l-10.72034,-58.25h63.25v58z" fill="#ffffff" stroke="#ffffff" stroke-width="0" stroke-linecap="butt"/><path d="M221.875,168.4897c0,0 41.86401,-6.60941 44.52834,11.80181c3.86467,26.70578 -41.77834,18.94819 -41.77834,18.94819" fill="none" stroke="#000000" stroke-width="5" stroke-linecap="round"/><path d="M227.19377,178.33108c-2,1.5 -3.5,-0.5 -3.5,-0.5l-0.61852,-0.83909c-2.83641,-3.19376 -7.26744,-7.16195 -5.14065,-11.98149c1.46461,-3.31898 6.91585,-6.13013 9.58676,-8.53766c0,0 1.85824,-1.67241 3.53065,0.18582c1.67241,1.85824 -0.18582,3.53065 -0.18582,3.53065c-2.27191,2.04177 -4.64727,3.82034 -7.00511,5.75458c-0.64557,0.52959 -1.86482,1.02934 -1.469,2.13141c0.7311,2.03555 3.04022,4.0438 4.42022,5.59486l0.88148,1.16091c0,0 1.5,2 -0.5,3.5z" fill="#000000" stroke="none" stroke-width="0.5" stroke-linecap="butt"/></g></g></svg>