<svg version="1.1" xmlns="http://www.w3.org/2000/svg" xmlns:xlink="http://www.w3.org/1999/xlink" width="551.04805" height="403.9039" viewBox="0,0,551.04805,403.9039"><g transform="translate(37.02402,21.95195)"><g data-paper-data="{&quot;isPaintingLayer&quot;:true}" fill-rule="nonzero" stroke-linejoin="miter" stroke-miterlimit="10" stroke-dasharray="" stroke-dashoffset="0" style="mix-blend-mode: normal"><path d="M-34.02402,381.95195v-403.9039h548.04805v403.9039z" fill="#000000" stroke="#ff0000" stroke-width="0" stroke-linecap="butt"/><text transform="translate(62.97599,26.54805) scale(0.5,0.5)" font-size="40" xml:space="preserve" fill="#ffffff" fill-rule="nonzero" stroke="none" stroke-width="1" stroke-linecap="butt" stroke-linejoin="miter" stroke-miterlimit="10" stroke-dasharray="" stroke-dashoffset="0" font-family="&quot;Splatfont 2&quot;, Sans Serif" font-weight="normal" text-anchor="start" style="mix-blend-mode: normal"><tspan x="0" dy="0">アカウント</tspan></text><path d="M480.00001,126.0045h-514.02403" fill="none" stroke="#ffffff" stroke-width="6" stroke-linecap="round"/><g fill="none" stroke="#ffffff" stroke-width="5"><path d="M57.26438,76.54972c0,11.0095 -8.69549,19.93447 -19.42195,19.93447c-10.72643,0 -19.42195,-8.92497 -19.42195,-19.93447c0,-11.0095 8.69552,-19.93447 19.42195,-19.93447c10.72643,0 19.42195,8.92497 19.42195,19.93447z" stroke-linecap="butt"/><path d="M13.41299,120.71824c0,0 -0.53617,-15.24494 0.95079,-20.56923c1.05279,-3.76972 7.12721,-8.35529 7.12721,-8.35529" stroke-linecap="round"/><path d="M53.07,92.57548c0,0 6.07441,4.58557 7.12721,8.35529c1.48696,5.32429 0.95079,20.56923 0.95079,20.56923" data-paper-data="{&quot;index&quot;:null}" stroke-linecap="round"/></g><text transform="translate(9,184.5) scale(0.5,0.5)" font-size="40" xml:space="preserve" fill="#ffffff" fill-rule="nonzero" stroke="none" stroke-width="1" stroke-linecap="butt" stroke-linejoin="miter" stroke-miterlimit="10" stroke-dasharray="" stroke-dashoffset="0" font-family="&quot;Splatfont 2&quot;, Sans Serif" font-weight="normal" text-anchor="start" style="mix-blend-mode: normal"><tspan x="0" dy="0">最近の勝率</tspan></text><text transform="translate(10,213.575) scale(0.5,0.5)" font-size="40" xml:space="preserve" fill="#ffffff" fill-rule="nonzero" stroke="none" stroke-width="1" stroke-linecap="butt" stroke-linejoin="miter" stroke-miterlimit="10" stroke-dasharray="" stroke-dashoffset="0" font-family="&quot;Splatfont 2&quot;, Sans Serif" font-weight="normal" text-anchor="start" style="mix-blend-mode: normal"><tspan x="0" dy="0">レギュラーマッチ:</tspan></text><text transform="translate(262.94001,213.575) scale(0.5,0.5)" font-size="40" xml:space="preserve" fill="#ffffff" fill-rule="nonzero" stroke="none" stroke-width="1" stroke-linecap="butt" stroke-linejoin="miter" stroke-miterlimit="10" stroke-dasharray="" stroke-dashoffset="0" font-family="&quot;Splatfont 2&quot;, Sans Serif" font-weight="normal" text-anchor="start" style="mix-blend-mode: normal"><tspan x="0" dy="0">CPU:</tspan></text><path d="M444.50001,278.5h-409" fill="none" stroke="#ffffff" stroke-width="1.5" stroke-linecap="round"/><path d="M35.5,328.5h409" fill="none" stroke="#ffffff" stroke-width="1.5" stroke-linecap="round"/><text transform="translate(9,263.5) scale(0.5,0.5)" font-size="40" xml:space="preserve" fill="#ffffff" fill-rule="nonzero" stroke="none" stroke-width="1" stroke-linecap="butt" stroke-linejoin="miter" stroke-miterlimit="10" stroke-dasharray="" stroke-dashoffset="0" font-family="&quot;Splatfont 2&quot;, Sans Serif" font-weight="normal" text-anchor="start" style="mix-blend-mode: normal"><tspan x="0" dy="0">最近の戦績</tspan></text></g></g></svg>