<svg version="1.1" xmlns="http://www.w3.org/2000/svg" xmlns:xlink="http://www.w3.org/1999/xlink" width="163.77464" height="39.2589" viewBox="0,0,163.77464,39.2589"><g transform="translate(-159.16929,-160.37054)"><g data-paper-data="{&quot;isPaintingLayer&quot;:true}" fill-rule="nonzero" stroke-linecap="butt" stroke-linejoin="miter" stroke-miterlimit="10" stroke-dasharray="" stroke-dashoffset="0" style="mix-blend-mode: normal"><path d="M179.84814,199.62945v-39.18917h122.30589v39.18917z" fill="#160094" stroke="#000000" stroke-width="0"/><path d="M159.16929,179.99279c0,-10.83706 8.78517,-19.62224 19.62224,-19.62224c10.83706,0 19.62224,8.78517 19.62224,19.62224c0,10.83706 -8.78517,19.62224 -19.62224,19.62224c-10.83706,0 -19.62224,-8.78517 -19.62224,-19.62224z" fill="#160094" stroke="#000000" stroke-width="0"/><path d="M283.69945,179.9928c0,-10.83706 8.78518,-19.62223 19.62224,-19.62223c10.83706,0 19.62224,8.78517 19.62224,19.62223c0,10.83706 -8.78518,19.62224 -19.62224,19.62224c-10.83706,0 -19.62224,-8.78518 -19.62224,-19.62224z" fill="#160094" stroke="#000000" stroke-width="0"/><text transform="translate(227.26515,186.03487) scale(0.5,0.5)" font-size="40" xml:space="preserve" fill="#ffffff" fill-rule="nonzero" stroke="none" stroke-width="1" stroke-linecap="butt" stroke-linejoin="miter" stroke-miterlimit="10" stroke-dasharray="" stroke-dashoffset="0" font-family="&quot;Splatfont 2&quot;, Sans Serif" font-weight="normal" text-anchor="start" style="mix-blend-mode: normal"><tspan x="0" dy="0">ミッション</tspan></text><path d="M189.09571,180.47043c-3.54124,-1.30842 -6.00857,-4.24322 -6.00857,-7.65385c0,-4.62869 4.54437,-8.38098 10.15012,-8.38098c5.60575,0 10.15012,3.75229 10.15012,8.38098c0,3.19561 -2.16604,5.9735 -5.35198,7.38729l-1.66746,6.62173l-6.05671,-0.16085z" fill="none" stroke="#ffffff" stroke-width="2.5"/><path d="M188.39774,191.55396c0,-0.22944 0.02342,-0.45436 0.06839,-0.67323c3.40033,0.19833 7.26434,0.2325 9.45203,-0.34537c0.10351,0.32519 0.15864,0.66658 0.15864,1.01859c0,2.20694 -2.16673,3.99601 -4.83953,3.99601c-2.6728,0 -4.83953,-1.78907 -4.83953,-3.99601z" fill="#ffffff" stroke="#ffffff" stroke-width="0"/></g></g></svg>