<svg version="1.1" xmlns="http://www.w3.org/2000/svg" xmlns:xlink="http://www.w3.org/1999/xlink" width="273.60214" height="128.96242" viewBox="0,0,273.60214,128.96242"><defs><linearGradient x1="92.3996" y1="180" x2="366.00172" y2="180" gradientUnits="userSpaceOnUse" id="color-1"><stop offset="0" stop-color="#ff9900"/><stop offset="1" stop-color="#ff9900" stop-opacity="0.50196"/></linearGradient></defs><g transform="translate(-92.39958,-139.51879)"><g data-paper-data="{&quot;isPaintingLayer&quot;:true}" fill-rule="nonzero" stroke-linecap="butt" stroke-linejoin="miter" stroke-miterlimit="10" stroke-dasharray="" stroke-dashoffset="0" style="mix-blend-mode: normal"><path d="M93.47908,221.72002c8.19241,-32.79255 5.18041,-20.90755 11.17799,-44.91471c4.62532,-18.51427 33.44744,-37.28652 54.83075,-37.28652c42.68696,0 206.5139,2 206.5139,2c0,0 0,59.51169 0,91.04759c0,15.91326 -18.49809,35.91483 -45.2828,35.91483c-56.73799,0 -150.65946,0 -184.70197,0c-24.33224,0 -49.1338,-20.35906 -42.53788,-46.76119z" fill="url(#color-1)" stroke="#000000" stroke-width="0"/><text transform="translate(150.18395,204.46089) scale(1.32509,1.32509)" font-size="40" xml:space="preserve" fill="#ffffff" fill-rule="nonzero" stroke="none" stroke-width="1" stroke-linecap="butt" stroke-linejoin="miter" stroke-miterlimit="10" stroke-dasharray="" stroke-dashoffset="0" font-family="&quot;Splatfont 2&quot;, Sans Serif" font-weight="normal" text-anchor="start" style="mix-blend-mode: normal"><tspan x="0" dy="0">CPU対戦</tspan></text><text transform="translate(168.53301,248.48897) scale(0.47575,0.47575)" font-size="40" xml:space="preserve" fill="#ffffff" fill-rule="nonzero" stroke="none" stroke-width="1" stroke-linecap="butt" stroke-linejoin="miter" stroke-miterlimit="10" stroke-dasharray="" stroke-dashoffset="0" font-family="&quot;Splatfont 2&quot;, Sans Serif" font-weight="normal" text-anchor="start" style="mix-blend-mode: normal"><tspan x="0" dy="0">CPUと撃ち合い練習</tspan></text></g></g></svg>