<svg version="1.1" xmlns="http://www.w3.org/2000/svg" xmlns:xlink="http://www.w3.org/1999/xlink" width="163.77464" height="39.2589" viewBox="0,0,163.77464,39.2589"><g transform="translate(-159.22482,-160.33569)"><g data-paper-data="{&quot;isPaintingLayer&quot;:true}" fill-rule="nonzero" stroke-linecap="butt" stroke-linejoin="miter" stroke-miterlimit="10" stroke-dasharray="" stroke-dashoffset="0" style="mix-blend-mode: normal"><path d="M178.84706,199.59459v-39.18917h122.30589v39.18917z" fill="#036600" stroke="#000000" stroke-width="0"/><path d="M159.22482,179.95793c0,-10.83706 8.78517,-19.62224 19.62224,-19.62224c10.83706,0 19.62224,8.78517 19.62224,19.62224c0,10.83706 -8.78517,19.62224 -19.62224,19.62224c-10.83706,0 -19.62224,-8.78517 -19.62224,-19.62224z" fill="#036600" stroke="#000000" stroke-width="0"/><path d="M283.75498,179.95794c0,-10.83706 8.78518,-19.62223 19.62224,-19.62223c10.83706,0 19.62224,8.78517 19.62224,19.62223c0,10.83706 -8.78518,19.62224 -19.62224,19.62224c-10.83706,0 -19.62224,-8.78518 -19.62224,-19.62224z" fill="#036600" stroke="#000000" stroke-width="0"/><text transform="translate(222.35781,185.95793) scale(0.5,0.5)" font-size="40" xml:space="preserve" fill="#ffffff" fill-rule="nonzero" stroke="none" stroke-width="1" stroke-linecap="butt" stroke-linejoin="miter" stroke-miterlimit="10" stroke-dasharray="" stroke-dashoffset="0" font-family="&quot;Splatfont 2&quot;, Sans Serif" font-weight="normal" text-anchor="start" style="mix-blend-mode: normal"><tspan x="0" dy="0">ためしうち</tspan></text><path d="M206.78853,174.25823l0.04031,-0.05353c-0.39446,0.48578 -0.68559,1.02725 -1.19705,1.41097c-1.50103,1.12613 -3.78968,0.88331 -5.51341,1.29602c0,0 -0.16028,0.03818 -0.3113,-0.02754c-0.00314,0.0016 -0.00485,0.0024 -0.00485,0.0024l-0.08326,0.03893c-0.83918,0.38815 -1.4546,0.47651 -2.33605,0.71025c-0.45519,0.12071 -0.85366,0.37333 -1.30404,0.50859c-0.82749,0.24854 -1.67013,0.30199 -2.49913,0.51596c-1.16216,0.29996 -2.27465,0.66446 -3.48401,0.69837c0,0 -0.02007,0.00055 -0.05191,-0.00279c-0.09328,0.12113 -0.23329,0.16923 -0.23329,0.16923l-0.4373,0.14948c-1.43453,0.68329 -2.86891,1.20382 -4.38394,1.68059c-0.70295,0.22122 -1.64437,0.06744 -1.8783,0.98519c-0.04181,0.16405 -0.0452,0.33557 -0.0678,0.50336c-0.00444,0.74114 0.20177,1.67173 -0.12161,2.37476c-0.12599,0.2739 -0.22993,0.61459 -0.49603,0.75631c-0.25727,0.13702 -0.58957,0.03693 -0.87405,-0.0266c-0.18838,-0.04207 -0.33552,-0.19102 -0.50597,-0.28159c-0.63776,-0.33888 -1.23629,-0.57683 -1.30266,-1.41505c-0.01577,-0.19917 0.10861,-0.38563 0.13851,-0.58317c0.08259,-0.54555 0.12566,-1.04787 0.2438,-1.58712c0.04186,-0.19106 0.22508,-0.42752 0.10031,-0.57814c-0.15,-0.18108 -0.47013,0.01384 -0.70488,0.02729c0,0 -0.08614,0.0036 -0.18517,-0.02975c-0.06018,0.05066 -0.11404,0.0751 -0.11404,0.0751l-0.15363,0.06465c-0.90669,0.57214 -1.83553,1.9038 -3.04223,1.87055c-0.46822,-0.0129 -0.93718,-0.33736 -1.41694,-0.44385c-0.16258,0.05368 -0.32555,-0.00757 -0.32555,-0.00757l-0.43314,-0.17586c-0.85847,0.1164 -1.73513,0.02173 -2.58965,-0.09844c0,0 -0.02091,-0.00297 -0.05311,-0.01212c-0.08657,0.04043 -0.16252,0.04837 -0.16252,0.04837l0.02827,-0.01472c-1.16671,0.40002 -2.35811,0.74091 -3.51835,1.1392c-0.39659,0.13614 -1.28234,0.18741 -1.40027,0.74699c-0.11798,0.55982 0.39579,1.25651 0.66998,1.68501c0.29547,0.43858 0.84884,1.25675 0.65982,1.8361c-0.09486,0.29073 -0.29485,0.58266 -0.56774,0.72067c-0.21528,0.10887 -0.48024,-0.04647 -0.72041,-0.06921c-0.69326,-0.06563 -1.87538,0.12567 -2.34202,-0.54897c-0.23882,-0.34527 -0.0941,-0.83534 -0.17591,-1.24711c-0.31357,-1.57822 -0.45083,-3.23164 -0.61751,-4.83603c-0.11662,-0.04675 -0.23614,-0.14907 -0.25926,-0.37028c-0.04751,-0.45459 0.40708,-0.5021 0.40708,-0.5021c0.39726,-0.03764 0.75868,-0.30801 1.1577,-0.30462c0.70101,0.00596 1.386,0.47159 1.03616,1.17554c0.0134,-0.01751 0.02734,-0.0319 0.03981,-0.03764c0.16987,-0.0782 0.3604,-0.10035 0.5384,-0.15768c0.37583,-0.12105 0.74992,-0.2503 1.13345,-0.34414c0.75128,-0.18382 1.40377,-0.70305 2.16514,-0.81846c0.51866,-0.07862 0.97086,-0.09234 1.49657,-0.21524l0.36805,-0.19689c-0.24952,-0.03254 -0.50305,-0.0578 -0.76689,-0.07802c-0.28925,-0.02216 -1.04104,-0.01524 -1.23829,-0.1677c-0.33094,-0.25578 -0.5355,-1.16392 -0.35064,-1.53777c0.37509,-0.75855 0.60768,-0.38737 1.12881,-0.61375c0.54649,-0.23739 0.99157,-0.66999 1.44333,-1.04447l0.31347,-0.15988c0,0 0.17673,-0.08017 0.35212,-0.02087c0.23409,-0.41899 0.43259,-0.91089 0.88056,-1.13502c0.40858,-0.20442 1.15173,-0.14335 1.6124,-0.22724c2.46454,-0.73373 4.9591,-1.3089 7.42878,-1.98807c0.82783,-0.22766 1.67367,-0.25762 2.49999,-0.51512c0,0 0.1957,-0.06087 0.36577,0.02997c0.08304,0.00328 0.14314,0.02375 0.14314,0.02375c0.82933,0.28304 1.73817,0.65424 2.58228,0.85237c0.82316,0.19321 2.02642,-0.20677 2.84834,-0.35018l0.36893,-0.17112c0,0 0.18976,-0.08608 0.37115,-0.01388c0.01707,-0.00586 0.03463,-0.01075 0.05262,-0.01459l0.25283,-0.05795c0.19814,-0.05878 0.39629,-0.11756 0.59443,-0.17634c0.71822,-0.12678 1.32686,-0.51943 2.06018,-0.62264c0.28108,-0.03956 0.57276,-0.17239 0.84611,-0.09592c0.67867,0.18984 0.68204,0.55297 0.83306,1.0697c0.02348,0.08033 0.00274,0.18779 0.06637,0.24216c0.14117,0.12061 0.36823,-0.06073 0.5435,-0.12202c0.32253,-0.11278 0.61619,-0.2955 0.92268,-0.44656c0.89855,-0.44288 1.89797,-0.64271 2.89151,-0.76679c-0.22139,-0.55238 -0.40585,-1.29067 0.08693,-1.77124c0.27432,-0.26753 0.74777,-0.16848 1.11838,-0.2658c0.87899,-0.2308 1.8049,-0.27251 2.70987,-0.36237c0.00112,-0.00146 0.00226,-0.00292 0.0034,-0.00438c0.0782,-0.41233 0.1188,-0.81936 0.20549,-1.23616c0.0403,-0.19373 -0.00142,-0.41221 0.0925,-0.58639c0.40936,-0.75914 1.93625,-1.05954 2.54987,-0.31955c0.15546,0.18747 0.14527,0.46661 0.18432,0.707c0.11854,0.72973 -0.13217,1.58376 0.1806,2.26273c0.02439,0.05048 0.01734,0.14625 0.07317,0.15144c0.24321,0.02261 0.45485,-0.18115 0.69066,-0.24483c0.3743,-0.10108 0.75333,-0.18394 1.13178,-0.2681c2.23754,-0.4976 4.49102,-0.97555 6.76447,-1.22425c0.20318,-1.10714 1.0295,-2.16347 1.73934,-3.0168c0.37811,-0.45455 0.62714,-0.90099 1.37895,-0.54005c0.63992,0.30723 0.48654,1.10926 0.62693,1.64339c0.03705,0.14095 0.10613,0.27216 0.14299,0.41316c0.02092,0.08003 -0.03922,0.20026 0.02943,0.24641c0.07138,0.04799 0.16552,-0.05694 0.25153,-0.05752c0.18644,-0.00125 0.37099,0.03805 0.55691,0.05209c0.42517,0.03211 0.8448,0.14975 1.24285,0.30258c0.12845,0.24714 0.33373,0.46771 0.38536,0.74141c0.20299,1.07597 -1.04962,1.95599 -1.77113,2.46724c-0.16823,0.11921 -0.32451,0.27341 -0.52245,0.33111c-0.18974,0.05531 -0.3954,-0.01404 -0.59287,-0.00603c-0.83118,0.03375 -1.65101,0.10381 -2.48556,0.07265l0.1717,0.03303c0,0 -0.24772,0.24451 -0.52419,0.0906c-0.08263,0.03675 -0.15322,0.04413 -0.15322,0.04413l-0.1172,0.00048c-0.17041,0.05751 -0.34083,0.11502 -0.51124,0.17254c-2.97193,0.32733 -5.96497,0.79402 -8.87756,1.48552c0.19458,0.36174 -0.16362,0.59021 -0.16362,0.59021zM199.90657,176.02244c1.15336,-0.27338 2.32847,-0.30261 3.48339,-0.5492c0.54351,-0.11605 1.24623,-0.25174 1.70374,-0.59655c0.30289,-0.22828 0.51835,-0.54326 0.73549,-0.85421c-1.27968,0.42916 -2.63261,0.52357 -3.94155,0.82944c-1.20639,0.2819 -2.31952,0.50352 -3.55867,0.63301c0,0 -0.13383,0.01399 -0.26385,-0.04583c-0.09214,0.04627 -0.17636,0.05507 -0.17636,0.05507l-0.304,0.02774c-1.07285,0.25769 -2.11106,0.61483 -3.1938,0.84975c-0.88313,0.19162 -1.79762,0.20101 -2.68098,0.3906c-1.10056,0.23622 -2.14814,0.66993 -3.25263,0.88533c-0.01287,0.00428 -0.02041,0.00617 -0.02041,0.00617l-0.22635,0.05612c-1.04081,0.32208 -2.08764,0.38102 -3.147,0.59315c-1.3682,0.27397 -2.69736,0.64995 -4.08222,0.86915c0,0 -0.03294,0.0052 -0.08243,0.0039c-0.08568,0.08514 -0.18483,0.12123 -0.18483,0.12123l-0.12745,0.04612c-1.70992,0.68459 -3.54934,0.97745 -5.37183,1.16729c-0.62245,0.06484 -1.6277,0.40907 -2.22165,0.12202c-0.09505,-0.04594 -0.18701,-0.11521 -0.27561,-0.2012c-0.01633,0.21608 -0.18513,0.39627 -0.40829,0.4196c-0.11832,0.01237 -0.23081,-0.02158 -0.31942,-0.0872l-0.08252,-0.06064c0.09975,0.33622 -0.23486,0.5124 -0.23486,0.5124l-0.57435,0.29844c-0.00257,0.00064 -1.12887,0.27998 -1.1511,0.28238c-0.3096,0.03347 -0.64143,-0.00882 -0.9271,0.11513c-0.73779,0.32012 -1.40003,0.55461 -2.16742,0.78852c-0.2453,0.07477 -1.02836,0.38449 -1.27115,0.39761c-0.28861,0.01559 -0.64113,0.08143 -0.8605,-0.10677c-0.26458,-0.227 0.03187,-0.72748 -0.12621,-1.0382c-0.02423,-0.04762 -0.10939,-0.00319 -0.15958,0.01514c-0.15897,0.05808 -0.30188,0.15857 -0.46083,0.21482c0.16206,1.56496 0.29929,3.17227 0.60092,4.7116c0.03783,0.19305 0.08841,0.38533 0.09936,0.58175c0.00661,0.11859 -0.08959,0.24219 -0.04724,0.35316c0.06927,0.18152 0.386,0.04973 0.58019,0.05567c0.25503,0.0078 0.88253,0.02598 1.11944,0.07591c0.09249,0.01949 0.1625,0.10621 0.25553,0.12292c0.11921,0.02141 -0.03393,-0.24143 -0.07384,-0.35578c-0.10522,-0.30143 -0.26615,-0.58409 -0.44754,-0.84682c-0.43295,-0.68071 -0.99847,-1.56645 -0.78916,-2.42714c0.23207,-0.95427 1.22323,-1.11044 1.98126,-1.37108c1.16188,-0.3995 2.35506,-0.73869 3.52269,-1.14071l0.17374,-0.02992c0,0 0.06968,-0.00728 0.15732,0.01114c0.13724,-0.06376 0.28166,-0.04329 0.28166,-0.04329c0.86391,0.1236 1.70848,0.16914 2.57773,0.09683l0.45841,0.16291c0.08148,-0.01352 0.14399,-0.00581 0.14399,-0.00581c0.50207,0.06569 1.00423,0.42792 1.4699,0.46283c0.28398,0.02129 0.51221,-0.24923 0.7646,-0.38113c0.67644,-0.35352 1.12918,-0.93173 1.77298,-1.34609l0.26757,-0.12643c0,0 0.17762,-0.08057 0.35344,-0.02042c0.12642,-0.09915 0.2853,-0.10578 0.2853,-0.10578c0.47334,-0.01424 1.08025,-0.12639 1.45761,0.316c0.16797,0.19692 0.13371,0.50366 0.14914,0.76203c0.04817,0.807 -0.36774,1.72607 -0.43278,2.52542c-0.02832,0.34809 0.65295,0.54887 0.82406,0.64208c0.17649,0.09614 0.36194,0.42351 0.52193,0.30186c0.1767,-0.13436 0.10478,-0.43236 0.13278,-0.65257c0.07338,-0.57713 -0.00775,-1.15394 -0.00368,-1.73549c0.11774,-0.80115 0.25057,-1.36177 0.96387,-1.86039c0.50015,-0.34962 1.07069,-0.25595 1.62116,-0.43336c1.49024,-0.48028 2.89469,-0.98342 4.3115,-1.65455l0.48544,-0.16754c0,0 0.08093,-0.02781 0.18479,-0.02433c0.12593,-0.18462 0.37242,-0.19137 0.37242,-0.19137c1.13877,-0.03032 2.18949,-0.3912 3.28458,-0.67073c0.81177,-0.20722 1.63808,-0.25938 2.44667,-0.50099c0.45963,-0.13734 0.86485,-0.3915 1.33074,-0.51664c0.85162,-0.22875 1.40296,-0.28227 2.19906,-0.6591l0.08326,-0.03893c0,0 0.21217,-0.09921 0.40377,-0.0037c0.05044,-0.02344 0.08776,-0.03233 0.08776,-0.03233zM191.71078,175.24596c0.08735,-0.25498 0.38693,-0.28629 0.38693,-0.28629l0.33147,-0.0293c0.50816,-0.13343 0.98194,-0.26607 1.50805,-0.31c0.20833,-0.0174 0.44258,-0.13995 0.62592,-0.03951c0.04467,0.02447 0.08654,0.05254 0.12622,0.08344l0.01502,-0.0234l0.39052,0.25065c0.10645,0.06704 0.18435,0.17721 0.20704,0.30888c0.68934,-0.19002 1.37155,-0.39842 2.06849,-0.56717l0.42333,-0.04827c0,0 0.13383,-0.01399 0.26385,0.04583c0.09214,-0.04627 0.17636,-0.05507 0.17636,-0.05507c1.20281,-0.1257 2.27313,-0.34249 3.44332,-0.61343c1.36491,-0.31603 2.79175,-0.38975 4.11131,-0.89583l0.25584,-0.07277c0,0 0.10173,-0.02807 0.22092,-0.00836c0.10468,-0.11765 0.25487,-0.15387 0.25487,-0.15387c2.97923,-0.7174 6.06316,-1.24428 9.1122,-1.54158c0.13717,-0.04816 0.27433,-0.09633 0.4115,-0.14448l0.3192,-0.04512c0,0 0.13366,-0.01397 0.2636,0.04572l0.37163,-0.21778c0.81402,0.03116 1.61584,-0.0639 2.42563,-0.07295c0.12336,-0.00138 0.24811,0.07024 0.36788,0.04063c0.32006,-0.07911 0.51079,-0.41738 0.77588,-0.61339c0.37569,-0.27778 1.03158,-0.82342 0.78419,-1.35629c-0.41839,-0.09688 -0.83888,-0.08105 -1.26595,-0.13376c-0.23714,-0.02927 -0.51555,0.03577 -0.70921,-0.10418c-0.38542,-0.27852 -0.56921,-1.25271 -0.63037,-1.69805c-0.02506,-0.1825 0.03589,-0.40045 -0.07502,-0.54754c-0.07363,-0.09765 -0.15677,0.18824 -0.22552,0.28938c-0.21877,0.32182 -0.37289,0.49189 -0.59697,0.81639c-0.42379,0.61372 -0.91719,1.16607 -0.98603,1.92311c0,0 -0.03149,0.29331 -0.27951,0.38335c-0.10811,0.20424 -0.363,0.23088 -0.363,0.23088c-2.2876,0.23787 -4.55442,0.72153 -6.8048,1.22282c-0.52198,0.11627 -1.03727,0.27234 -1.56049,0.38134c-0.23248,0.04843 -0.47504,0.19042 -0.70209,0.12086c-0.24835,-0.07608 -0.38981,-0.34339 -0.58471,-0.51509c-0.33149,-0.73598 -0.29458,-1.40681 -0.32176,-2.20291c-0.00809,-0.23694 0.12245,-0.50927 -0.00174,-0.71122c-0.09937,-0.16159 -0.37882,-0.02448 -0.56851,-0.02588c-0.76579,-0.00566 -0.59127,1.41688 -0.71899,2.00468l-0.23152,0.06691c-0.00867,0.38271 -0.41042,0.42469 -0.41042,0.42469c-0.89349,0.09337 -1.81849,0.12083 -2.68772,0.34906c-0.16629,0.04367 -0.32818,0.11225 -0.49922,0.12971c-0.0874,0.00892 -0.18137,-0.09485 -0.25828,-0.05241c-0.12871,0.07103 0.20114,0.82099 0.23157,0.88547l0.06115,0.35952c0,0 0.00337,0.0322 -0.00026,0.08037c0.00882,0.03068 0.01539,0.0644 0.01927,0.10147c0.04751,0.45459 -0.40708,0.5021 -0.40708,0.5021c-0.87983,0.09162 -1.82431,0.2106 -2.64252,0.55129c-0.63385,0.26392 -1.33198,0.81932 -2.04722,0.82084c-0.8169,0.00173 -0.85227,-0.10079 -1.17315,-0.80676c-0.07656,-0.16845 -0.02962,-0.50625 -0.21457,-0.51197c-0.83477,-0.02583 -1.65658,0.57334 -2.45755,0.72432c-0.18217,0.05449 -0.36434,0.10898 -0.54651,0.16347l-0.30568,0.07193c-0.02088,0.00524 -0.04238,0.00908 -0.06441,0.01138c-0.03747,0.00392 -0.07435,0.00319 -0.11008,-0.00172c-0.03548,-0.0035 -0.07396,-0.01076 -0.11259,-0.02414l-0.4406,0.19637c-0.87677,0.16618 -2.00098,0.48939 -2.94529,0.42108c-0.37095,0.77646 -0.63486,1.56423 -1.07121,2.3044c0.43364,-0.07031 0.86553,-0.15626 1.29577,-0.29081l0.18047,-0.0458c-0.08861,-0.23044 0.08493,-0.44449 0.08493,-0.44449c0.57328,-0.65273 1.2793,-0.71872 2.1119,-0.86874c0.4624,-0.08332 0.92765,-0.16068 1.39435,-0.232zM185.75438,176.82334l0.00295,0.0008c0.46407,-0.72066 0.72203,-1.50247 1.07534,-2.2722c-0.00455,-0.0017 -0.00911,-0.00337 -0.01369,-0.00499c-0.70686,-0.25072 -1.44653,-0.41216 -2.15756,-0.65388c0,0 -0.01566,-0.00534 -0.04001,-0.01696c-0.80865,0.2343 -1.63491,0.27359 -2.44087,0.49691c-2.47607,0.68607 -4.9771,1.25661 -7.44905,1.99317c-0.41836,0.0768 -1.05656,0.01452 -1.43482,0.16475c-0.22968,0.09122 -0.48928,0.79526 -0.60961,0.9833l-0.20018,0.29026c0,0 -0.04037,0.05843 -0.1123,0.11332c-0.00546,0.0683 -0.0112,0.13641 -0.01685,0.20433c0.06688,0.06173 0.10175,0.12422 0.10175,0.12422c0.2554,0.45777 0.52883,0.89291 0.81126,1.33329c0.04922,0.07675 0.05342,0.19794 0.13552,0.23761c0.089,0.043 0.19674,-0.01934 0.29505,-0.02955c0.47608,-0.04944 0.94212,-0.13622 1.41853,-0.18616c1.73594,-0.18198 3.49802,-0.44811 5.12571,-1.10621l0.15589,-0.05702c0,0 0.06928,-0.02522 0.16233,-0.02757c0.11448,-0.11615 0.27495,-0.1415 0.27495,-0.1415c1.37314,-0.21657 2.6891,-0.59103 4.0455,-0.86258c0.26305,-0.05266 0.52539,-0.09501 0.78706,-0.13416c-0.0928,-0.23221 0.08309,-0.44916 0.08309,-0.44916zM171.46768,179.52094c-0.06613,-0.46103 -0.05068,-0.91003 -0.02138,-1.38462c-0.37093,0.301 -0.75015,0.57812 -1.20781,0.78395c-0.19709,0.08864 -0.54293,-0.04019 -0.62873,0.15816c-0.05423,0.12536 -0.0487,0.34083 0.07279,0.40324c0.08474,0.04354 0.1887,-0.03136 0.28397,-0.03252c0.32919,-0.00399 1.00203,0.00562 1.50116,0.07179z" fill="#ffffff" stroke="none" stroke-width="0.5"/></g></g></svg>