<svg version="1.1" xmlns="http://www.w3.org/2000/svg" xmlns:xlink="http://www.w3.org/1999/xlink" width="242.60213" height="176.96242" viewBox="0,0,242.60213,176.96242"><defs><linearGradient x1="123.3996" y1="180" x2="366.00172" y2="180" gradientUnits="userSpaceOnUse" id="color-1"><stop offset="0" stop-color="#00b3ff"/><stop offset="1" stop-color="#00b3ff" stop-opacity="0.50196"/></linearGradient></defs><g transform="translate(-123.39959,-91.51879)"><g data-paper-data="{&quot;isPaintingLayer&quot;:true}" fill-rule="nonzero" stroke-linecap="butt" stroke-linejoin="miter" stroke-miterlimit="10" stroke-dasharray="" stroke-dashoffset="0" style="mix-blend-mode: normal"><path d="M124.35677,221.72002c7.26417,-32.79255 16.59344,-74.90755 21.91149,-98.91471c4.10126,-18.51427 30.65774,-31.28652 49.61825,-31.28652c37.85039,0 170.11521,0 170.11521,0c0,0 0,109.51169 0,141.04759c0,15.91326 -16.40221,35.91483 -40.15211,35.91483c-50.30939,0 -133.58927,0 -163.77464,0c-21.57532,0 -43.56677,-20.35906 -37.7182,-46.76119z" fill="url(#color-1)" stroke="#000000" stroke-width="0"/><text transform="translate(178.88534,155.30817) scale(1.32508,1.32508)" font-size="40" xml:space="preserve" fill="#ffffff" fill-rule="nonzero" stroke="none" stroke-width="1" stroke-linecap="butt" stroke-linejoin="miter" stroke-miterlimit="10" stroke-dasharray="" stroke-dashoffset="0" font-family="&quot;Splatfont 2&quot;, Sans Serif" font-weight="normal" text-anchor="start" style="mix-blend-mode: normal"><tspan x="0" dy="0">レギュラー</tspan><tspan x="0" dy="46.150000000000006px">マッチ</tspan></text><text transform="translate(137.95713,246.48897) scale(0.47575,0.47575)" font-size="40" xml:space="preserve" fill="#ffffff" fill-rule="nonzero" stroke="none" stroke-width="1" stroke-linecap="butt" stroke-linejoin="miter" stroke-miterlimit="10" stroke-dasharray="" stroke-dashoffset="0" font-family="&quot;Splatfont 2&quot;, Sans Serif" font-weight="normal" text-anchor="start" style="mix-blend-mode: normal"><tspan x="0" dy="0">世界中のプレイヤーと撃ち合いバトル</tspan></text></g></g></svg>