<svg version="1.1" xmlns="http://www.w3.org/2000/svg" xmlns:xlink="http://www.w3.org/1999/xlink" width="19.33334" height="76.17345" viewBox="0,0,19.33334,76.17345"><g transform="translate(-230.33333,-141.91327)"><g data-paper-data="{&quot;isPaintingLayer&quot;:true}" fill="none" fill-rule="nonzero" stroke-width="5" stroke-linecap="round" stroke-linejoin="miter" stroke-miterlimit="10" stroke-dasharray="" stroke-dashoffset="0" style="mix-blend-mode: normal"><path d="M239.16667,144.41327c0,0 8,23.97565 8,35.75339c0,11.9444 -8,35.42006 -8,35.42006" stroke="#ff0000"/><path d="M237.5,144.41327c0,0 8,23.97565 8,35.75339c0,11.9444 -8,35.42006 -8,35.42006" stroke-opacity="0.8" stroke="#ff0000"/><path d="M236.16667,144.41327c0,0 8,23.97565 8,35.75339c0,11.9444 -8,35.42006 -8,35.42006" stroke-opacity="0.6" stroke="#ff0000"/><path d="M234.16667,144.41328c0,0 8,23.97565 8,35.75339c0,11.9444 -8,35.42006 -8,35.42006" stroke-opacity="0.4" stroke="#ff0000"/><path d="M232.83333,144.41328c0,0 8,23.97565 8,35.75339c0,11.9444 -8,35.42006 -8,35.42006" stroke-opacity="0.2" stroke="#ff0000"/></g></g></svg>