<svg version="1.1" xmlns="http://www.w3.org/2000/svg" xmlns:xlink="http://www.w3.org/1999/xlink" width="169.5" height="169.5" viewBox="0,0,169.5,169.5"><defs><radialGradient cx="320" cy="180" r="84.75" gradientUnits="userSpaceOnUse" id="color-1"><stop offset="0" stop-color="#00ff47" stop-opacity="0.05098"/><stop offset="1" stop-color="#00ff47" stop-opacity="0"/></radialGradient></defs><g transform="translate(-235.25,-95.25)"><g stroke-miterlimit="10"><path d="M235.25,180c0,-46.80613 37.94387,-84.75 84.75,-84.75c46.80613,0 84.75,37.94387 84.75,84.75c0,46.80613 -37.94387,84.75 -84.75,84.75c-46.80613,0 -84.75,-37.94387 -84.75,-84.75z" fill="url(#color-1)" stroke="none" stroke-width="0"/><path d="M359,123.83334z" fill="none" stroke="#0000ff" stroke-width="2"/><path d="M277.7166,180c0,-23.35248 18.93093,-42.2834 42.2834,-42.2834c23.35248,0 42.2834,18.93093 42.2834,42.2834c0,23.35248 -18.93093,42.2834 -42.2834,42.2834c-23.35248,0 -42.2834,-18.93093 -42.2834,-42.2834z" fill-opacity="0.07843" fill="#00ff4e" stroke="#0000ff" stroke-width="0"/></g></g></svg>