<svg version="1.1" xmlns="http://www.w3.org/2000/svg" xmlns:xlink="http://www.w3.org/1999/xlink" width="54.91745" height="76.30204" viewBox="0,0,54.91745,76.30204"><g transform="translate(-237.33741,-106.89796)"><g data-paper-data="{&quot;isPaintingLayer&quot;:true}" fill-rule="nonzero" stroke-linejoin="miter" stroke-miterlimit="10" stroke-dasharray="" stroke-dashoffset="0" style="mix-blend-mode: normal"><path d="M278.70936,160.35168c-3.35763,0.72501 -4.08263,-2.63262 -4.08263,-2.63262l-0.16925,-0.9607c-4.12608,-11.23977 -16.29659,-20.95678 -27.16724,-25.24939c0,0 -3.19133,-1.27072 -1.9206,-4.46205c1.27072,-3.19133 4.46205,-1.9206 4.46205,-1.9206c12.78474,5.12752 26.02333,16.11765 31.05488,29.21044l0.45543,1.93232c0,0 0.72501,3.35763 -2.63262,4.08263z" fill="#a1a1a1" stroke="none" stroke-width="0.5" stroke-linecap="butt"/><path d="M289.7988,144.83101c-3.20606,1.2331 -4.43915,-1.97296 -4.43915,-1.97296l-0.28182,-0.73273c-6.17791,-16.3348 -23.24798,-25.77848 -39.86685,-28.15239c0,0 -3.40048,-0.48579 -2.9147,-3.88628c0.48579,-3.40048 3.88628,-2.9147 3.88628,-2.9147c19.21727,2.74558 38.03279,13.84329 45.3074,32.48718l0.28181,0.73272c0,0 1.2331,3.20606 -1.97295,4.43916z" fill="#a1a1a1" stroke="#a1a1a1" stroke-width="0.5" stroke-linecap="butt"/><path d="M240.28243,180.02979l10.58054,-70.38261" fill="none" stroke="#3b3b3b" stroke-width="5" stroke-linecap="round"/><path d="M240.28243,180.42972l8.7555,-70.63286" fill="none" stroke="#808080" stroke-width="5" stroke-linecap="round"/><path d="M244.66016,109.60836l-4.82274,71.00986" fill="none" stroke="#bebebe" stroke-width="5" stroke-linecap="round"/><path d="M240.28243,180.7v-71.17344" fill="none" stroke="#ffffff" stroke-width="5" stroke-linecap="round"/></g></g></svg>