<svg version="1.1" xmlns="http://www.w3.org/2000/svg" xmlns:xlink="http://www.w3.org/1999/xlink" width="111.87146" height="106.58313" viewBox="0,0,111.87146,106.58313"><g transform="translate(-265.0594,-125.66743)"><g fill="none" stroke="#00ff47" stroke-width="2" stroke-miterlimit="10"><path d="M307.46566,231.25056c-11.73751,-2.65815 -21.95021,-9.33425 -29.11609,-18.50629"/><path d="M266.68969,188.07128c-0.41486,-2.62946 -0.63029,-5.32522 -0.63029,-8.07128c0,-7.40398 1.56602,-14.4422 4.38491,-20.80149"/><path d="M286.62658,143.61403c6.11402,-5.62974 13.59705,-9.79539 21.89291,-11.94075"/><path d="M335.91214,126.66743c12.52128,3.05346 23.24494,10.69508 30.28884,21.04271"/><path d="M373.12286,163.20379c1.81966,5.26323 2.808,10.9143 2.808,16.79621c0,3.79658 -0.41177,7.49699 -1.19308,11.05901"/><path d="M362.16328,209.37344c-1.31443,1.88324 -2.75181,3.67431 -4.3005,5.36156"/><path d="M340.15201,226.0531c-3.67143,1.64663 -7.57131,2.87486 -11.63897,3.62403"/></g></g></svg>